<?xml version="1.0" encoding="UTF-8"?> <svg xmlns="http://www.w3.org/2000/svg" width="2070" height="1563" viewBox="0 0 2070 1563" fill="none"><g clip-path="url(#clip0_127_283)"><rect width="2069.61" height="1563" fill="#DBDBDB"></rect><path d="M-532 -309.581C733.882 -1624.13 942.86 835.312 2158 -326.948" stroke="#D4D4D4" stroke-width="10"></path><path d="M-532 -259.581C733.882 -1574.13 942.86 885.312 2158 -276.948" stroke="#D4D4D4" stroke-width="10"></path><path d="M-532 -209.581C733.882 -1524.13 942.86 935.312 2158 -226.948" stroke="#D4D4D4" stroke-width="10"></path><path d="M-532 -159.581C733.882 -1474.13 942.86 985.312 2158 -176.948" stroke="#D4D4D4" stroke-width="10"></path><path d="M-532 -109.581C733.882 -1424.13 942.86 1035.31 2158 -126.948" stroke="#D4D4D4" stroke-width="10"></path><path d="M-532 -59.5814C733.882 -1374.13 942.86 1085.31 2158 -76.9484" stroke="#D4D4D4" stroke-width="10"></path><path d="M-532 -10.5814C733.882 -1325.13 942.86 1134.31 2158 -27.9484" stroke="#D4D4D4" stroke-width="10"></path><path d="M-532 39.4186C733.882 -1275.13 942.86 1184.31 2158 22.0516" stroke="#D4D4D4" stroke-width="10"></path><path d="M-532 89.4186C733.882 -1225.13 942.86 1234.31 2158 72.0516" stroke="#D4D4D4" stroke-width="10"></path><path d="M-532 139.419C733.882 -1175.13 942.86 1284.31 2158 122.052" stroke="#D4D4D4" stroke-width="10"></path><path d="M-532 189.419C733.882 -1125.13 942.86 1334.31 2158 172.052" stroke="#D4D4D4" stroke-width="10"></path><path d="M-532 239.419C733.882 -1075.13 942.86 1384.31 2158 222.052" stroke="#D4D4D4" stroke-width="10"></path><path d="M-532 291.419C733.882 -1023.13 942.86 1436.31 2158 274.052" stroke="#D4D4D4" stroke-width="10"></path><path d="M-532 341.419C733.882 -973.132 942.86 1486.31 2158 324.052" stroke="#D4D4D4" stroke-width="10"></path><path d="M-532 391.419C733.882 -923.132 942.86 1536.31 2158 374.052" stroke="#D4D4D4" stroke-width="10"></path><path d="M-532 441.419C733.882 -873.132 942.86 1586.31 2158 424.052" stroke="#D4D4D4" stroke-width="10"></path><path d="M-532 491.419C733.882 -823.132 942.86 1636.31 2158 474.052" stroke="#D4D4D4" stroke-width="10"></path><path d="M-532 541.419C733.882 -773.132 942.86 1686.31 2158 524.052" stroke="#D4D4D4" stroke-width="10"></path><path d="M-532 590.419C733.882 -724.132 942.86 1735.31 2158 573.052" stroke="#D4D4D4" stroke-width="10"></path><path d="M-532 640.419C733.882 -674.132 942.86 1785.31 2158 623.052" stroke="#D4D4D4" stroke-width="10"></path><path d="M-532 690.419C733.882 -624.132 942.86 1835.31 2158 673.052" stroke="#D4D4D4" stroke-width="10"></path><path d="M-532 740.419C733.882 -574.132 942.86 1885.31 2158 723.052" stroke="#D4D4D4" stroke-width="10"></path><path d="M-532 790.419C733.882 -524.132 942.86 1935.31 2158 773.052" stroke="#D4D4D4" stroke-width="10"></path><path d="M-532 840.419C733.882 -474.132 942.86 1985.31 2158 823.052" stroke="#D4D4D4" stroke-width="10"></path><path d="M-532 892.419C733.882 -422.132 942.86 2037.31 2158 875.052" stroke="#D4D4D4" stroke-width="10"></path><path d="M-532 942.419C733.882 -372.132 942.86 2087.31 2158 925.052" stroke="#D4D4D4" stroke-width="10"></path><path d="M-532 992.419C733.882 -322.132 942.86 2137.31 2158 975.052" stroke="#D4D4D4" stroke-width="10"></path><path d="M-532 1042.42C733.882 -272.132 942.86 2187.31 2158 1025.05" stroke="#D4D4D4" stroke-width="10"></path><path d="M-532 1092.42C733.882 -222.132 942.86 2237.31 2158 1075.05" stroke="#D4D4D4" stroke-width="10"></path><path d="M-532 1142.42C733.882 -172.132 942.86 2287.31 2158 1125.05" stroke="#D4D4D4" stroke-width="10"></path><path d="M-532 1191.42C733.882 -123.132 942.86 2336.31 2158 1174.05" stroke="#D4D4D4" stroke-width="10"></path><path d="M-532 1241.42C733.882 -73.1316 942.86 2386.31 2158 1224.05" stroke="#D4D4D4" stroke-width="10"></path><path d="M-532 1291.42C733.882 -23.1316 942.86 2436.31 2158 1274.05" stroke="#D4D4D4" stroke-width="10"></path><path d="M-532 1341.42C733.882 26.8684 942.86 2486.31 2158 1324.05" stroke="#D4D4D4" stroke-width="10"></path><path d="M-532 1391.42C733.882 76.8684 942.86 2536.31 2158 1374.05" stroke="#D4D4D4" stroke-width="10"></path><path d="M-532 1441.42C733.882 126.868 942.86 2586.31 2158 1424.05" stroke="#D4D4D4" stroke-width="10"></path><path d="M-532 1493.42C733.882 178.868 942.86 2638.31 2158 1476.05" stroke="#D4D4D4" stroke-width="10"></path><path d="M-532 1543.42C733.882 228.868 942.86 2688.31 2158 1526.05" stroke="#D4D4D4" stroke-width="10"></path><path d="M-532 1593.42C733.882 278.868 942.86 2738.31 2158 1576.05" stroke="#D4D4D4" stroke-width="10"></path><path d="M-532 1643.42C733.882 328.868 942.86 2788.31 2158 1626.05" stroke="#D4D4D4" stroke-width="10"></path><path d="M-532 1693.42C733.882 378.868 942.86 2838.31 2158 1676.05" stroke="#D4D4D4" stroke-width="10"></path><path d="M-532 1743.42C733.882 428.868 942.86 2888.31 2158 1726.05" stroke="#D4D4D4" stroke-width="10"></path><path d="M-532 1792.42C733.882 477.868 942.86 2937.31 2158 1775.05" stroke="#D4D4D4" stroke-width="10"></path><path d="M-532 1842.42C733.882 527.868 942.86 2987.31 2158 1825.05" stroke="#D4D4D4" stroke-width="10"></path><path d="M-532 1892.42C733.882 577.868 942.86 3037.31 2158 1875.05" stroke="#D4D4D4" stroke-width="10"></path><path d="M-532 1942.42C733.882 627.868 942.86 3087.31 2158 1925.05" stroke="#D4D4D4" stroke-width="10"></path><path fill-rule="evenodd" clip-rule="evenodd" d="M1463.45 483.382C1543.18 483.382 1607.82 418.151 1607.82 337.691C1607.82 257.23 1543.18 192 1463.45 192C1383.71 192 1319.08 257.23 1319.08 337.691C1319.08 418.151 1383.71 483.382 1463.45 483.382ZM1063.85 1365.6H233.004C184.423 1365.6 154.778 1312.18 180.455 1270.92L734.543 380.81C758.388 342.509 813.674 341.512 838.503 379.181C925.161 510.652 1102.91 780.802 1255.8 1016.23L1416.31 756.87C1439.62 719.213 1493.75 717.491 1519.39 753.587L1885.41 1268.69C1914.39 1309.47 1885.74 1366.02 1835.74 1366.51L1481.04 1370L1063.85 1365.6Z" fill="url(#paint0_linear_127_283)"></path></g><defs><linearGradient id="paint0_linear_127_283" x1="1034" y1="192" x2="1034" y2="1370" gradientUnits="userSpaceOnUse"><stop stop-color="#444444"></stop><stop offset="1" stop-color="#C8C8C8"></stop></linearGradient><clipPath id="clip0_127_283"><rect width="2069.61" height="1563" fill="white"></rect></clipPath></defs></svg> 