<?xml version="1.0" encoding="UTF-8"?> <svg xmlns="http://www.w3.org/2000/svg" width="1564" height="2071" viewBox="0 0 1564 2071" fill="none"><g clip-path="url(#clip0_127_335)"><rect x="0.305664" y="2070.31" width="2069.61" height="1563" transform="rotate(-90 0.305664 2070.31)" fill="#DBDBDB"></rect><path d="M-309.276 2602.31C-1623.83 1336.42 835.617 1127.45 -326.643 -87.6943" stroke="#D4D4D4" stroke-width="10"></path><path d="M-259.276 2602.31C-1573.83 1336.42 885.617 1127.45 -276.643 -87.6943" stroke="#D4D4D4" stroke-width="10"></path><path d="M-209.276 2602.31C-1523.83 1336.42 935.617 1127.45 -226.643 -87.6943" stroke="#D4D4D4" stroke-width="10"></path><path d="M-159.276 2602.31C-1473.83 1336.42 985.617 1127.45 -176.643 -87.6943" stroke="#D4D4D4" stroke-width="10"></path><path d="M-109.276 2602.31C-1423.83 1336.42 1035.62 1127.45 -126.643 -87.6943" stroke="#D4D4D4" stroke-width="10"></path><path d="M-59.2757 2602.31C-1373.83 1336.42 1085.62 1127.45 -76.6428 -87.6943" stroke="#D4D4D4" stroke-width="10"></path><path d="M-10.2757 2602.31C-1324.83 1336.42 1134.62 1127.45 -27.6428 -87.6943" stroke="#D4D4D4" stroke-width="10"></path><path d="M39.7243 2602.31C-1274.83 1336.42 1184.62 1127.45 22.3572 -87.6943" stroke="#D4D4D4" stroke-width="10"></path><path d="M89.7243 2602.31C-1224.83 1336.42 1234.62 1127.45 72.3572 -87.6943" stroke="#D4D4D4" stroke-width="10"></path><path d="M139.724 2602.31C-1174.83 1336.42 1284.62 1127.45 122.357 -87.6943" stroke="#D4D4D4" stroke-width="10"></path><path d="M189.724 2602.31C-1124.83 1336.42 1334.62 1127.45 172.357 -87.6943" stroke="#D4D4D4" stroke-width="10"></path><path d="M239.724 2602.31C-1074.83 1336.42 1384.62 1127.45 222.357 -87.6943" stroke="#D4D4D4" stroke-width="10"></path><path d="M291.724 2602.31C-1022.83 1336.42 1436.62 1127.45 274.357 -87.6943" stroke="#D4D4D4" stroke-width="10"></path><path d="M341.724 2602.31C-972.826 1336.42 1486.62 1127.45 324.357 -87.6943" stroke="#D4D4D4" stroke-width="10"></path><path d="M391.724 2602.31C-922.826 1336.42 1536.62 1127.45 374.357 -87.6943" stroke="#D4D4D4" stroke-width="10"></path><path d="M441.724 2602.31C-872.826 1336.42 1586.62 1127.45 424.357 -87.6943" stroke="#D4D4D4" stroke-width="10"></path><path d="M491.724 2602.31C-822.826 1336.42 1636.62 1127.45 474.357 -87.6943" stroke="#D4D4D4" stroke-width="10"></path><path d="M541.724 2602.31C-772.826 1336.42 1686.62 1127.45 524.357 -87.6943" stroke="#D4D4D4" stroke-width="10"></path><path d="M590.724 2602.31C-723.826 1336.42 1735.62 1127.45 573.357 -87.6943" stroke="#D4D4D4" stroke-width="10"></path><path d="M640.724 2602.31C-673.826 1336.42 1785.62 1127.45 623.357 -87.6943" stroke="#D4D4D4" stroke-width="10"></path><path d="M690.724 2602.31C-623.826 1336.42 1835.62 1127.45 673.357 -87.6943" stroke="#D4D4D4" stroke-width="10"></path><path d="M740.724 2602.31C-573.826 1336.42 1885.62 1127.45 723.357 -87.6943" stroke="#D4D4D4" stroke-width="10"></path><path d="M790.724 2602.31C-523.826 1336.42 1935.62 1127.45 773.357 -87.6943" stroke="#D4D4D4" stroke-width="10"></path><path d="M840.724 2602.31C-473.826 1336.42 1985.62 1127.45 823.357 -87.6943" stroke="#D4D4D4" stroke-width="10"></path><path d="M892.724 2602.31C-421.826 1336.42 2037.62 1127.45 875.357 -87.6943" stroke="#D4D4D4" stroke-width="10"></path><path d="M942.724 2602.31C-371.826 1336.42 2087.62 1127.45 925.357 -87.6943" stroke="#D4D4D4" stroke-width="10"></path><path d="M992.724 2602.31C-321.826 1336.42 2137.62 1127.45 975.357 -87.6943" stroke="#D4D4D4" stroke-width="10"></path><path d="M1042.72 2602.31C-271.826 1336.42 2187.62 1127.45 1025.36 -87.6943" stroke="#D4D4D4" stroke-width="10"></path><path d="M1092.72 2602.31C-221.826 1336.42 2237.62 1127.45 1075.36 -87.6943" stroke="#D4D4D4" stroke-width="10"></path><path d="M1142.72 2602.31C-171.826 1336.42 2287.62 1127.45 1125.36 -87.6943" stroke="#D4D4D4" stroke-width="10"></path><path d="M1191.72 2602.31C-122.826 1336.42 2336.62 1127.45 1174.36 -87.6943" stroke="#D4D4D4" stroke-width="10"></path><path d="M1241.72 2602.31C-72.8259 1336.42 2386.62 1127.45 1224.36 -87.6943" stroke="#D4D4D4" stroke-width="10"></path><path d="M1291.72 2602.31C-22.8259 1336.42 2436.62 1127.45 1274.36 -87.6943" stroke="#D4D4D4" stroke-width="10"></path><path d="M1341.72 2602.31C27.1741 1336.42 2486.62 1127.45 1324.36 -87.6943" stroke="#D4D4D4" stroke-width="10"></path><path d="M1391.72 2602.31C77.1741 1336.42 2536.62 1127.45 1374.36 -87.6943" stroke="#D4D4D4" stroke-width="10"></path><path d="M1441.72 2602.31C127.174 1336.42 2586.62 1127.45 1424.36 -87.6943" stroke="#D4D4D4" stroke-width="10"></path><path d="M1493.72 2602.31C179.174 1336.42 2638.62 1127.45 1476.36 -87.6943" stroke="#D4D4D4" stroke-width="10"></path><path d="M1543.72 2602.31C229.174 1336.42 2688.62 1127.45 1526.36 -87.6943" stroke="#D4D4D4" stroke-width="10"></path><path d="M1593.72 2602.31C279.174 1336.42 2738.62 1127.45 1576.36 -87.6943" stroke="#D4D4D4" stroke-width="10"></path><path d="M1643.72 2602.31C329.174 1336.42 2788.62 1127.45 1626.36 -87.6943" stroke="#D4D4D4" stroke-width="10"></path><path d="M1693.72 2602.31C379.174 1336.42 2838.62 1127.45 1676.36 -87.6943" stroke="#D4D4D4" stroke-width="10"></path><path d="M1743.72 2602.31C429.174 1336.42 2888.62 1127.45 1726.36 -87.6943" stroke="#D4D4D4" stroke-width="10"></path><path d="M1792.72 2602.31C478.174 1336.42 2937.62 1127.45 1775.36 -87.6943" stroke="#D4D4D4" stroke-width="10"></path><path d="M1842.72 2602.31C528.174 1336.42 2987.62 1127.45 1825.36 -87.6943" stroke="#D4D4D4" stroke-width="10"></path><path d="M1892.72 2602.31C578.174 1336.42 3037.62 1127.45 1875.36 -87.6943" stroke="#D4D4D4" stroke-width="10"></path><path d="M1942.72 2602.31C628.174 1336.42 3087.62 1127.45 1925.36 -87.6943" stroke="#D4D4D4" stroke-width="10"></path><path fill-rule="evenodd" clip-rule="evenodd" d="M876.849 970.112C894.589 970.112 908.969 955.604 908.969 937.709C908.969 919.814 894.589 905.306 876.849 905.306C859.11 905.306 844.729 919.814 844.729 937.709C844.729 955.604 859.11 970.112 876.849 970.112ZM787.948 1166.33H603.1C592.292 1166.33 585.696 1154.45 591.409 1145.27L714.683 947.299C719.988 938.781 732.288 938.559 737.812 946.937C757.091 976.177 796.637 1036.26 830.653 1088.62L866.362 1030.94C871.548 1022.56 883.59 1022.18 889.296 1030.21L970.728 1144.77C977.175 1153.84 970.801 1166.42 959.676 1166.53L880.763 1167.31L787.948 1166.33Z" fill="url(#paint0_linear_127_335)"></path></g><defs><linearGradient id="paint0_linear_127_335" x1="781.306" y1="905.306" x2="781.306" y2="1167.31" gradientUnits="userSpaceOnUse"><stop stop-color="#444444"></stop><stop offset="1" stop-color="#C8C8C8"></stop></linearGradient><clipPath id="clip0_127_335"><rect width="2069.61" height="1563" fill="white" transform="translate(0.305664 2070.31) rotate(-90)"></rect></clipPath></defs></svg> 